<svg xmlns="http://www.w3.org/2000/svg" xmlns:xlink="http://www.w3.org/1999/xlink" version="1.2" width="210.00mm" height="297.00mm" viewBox="0.0000 -0.0000 119.5016 169.0094">
<style type="text/css">
<![CDATA[
tspan { white-space: pre; }
]]>
</style>
<g transform="translate(14.2264, 9.6243)">
<line stroke-linejoin="round" stroke-linecap="round" stroke-width="0.1000" stroke="currentColor" x1="0.0500" y1="0" x2="34.2695" y2="0"/>
</g>
<g transform="translate(14.2264, 8.6243)">
<line stroke-linejoin="round" stroke-linecap="round" stroke-width="0.1000" stroke="currentColor" x1="0.0500" y1="0" x2="34.2695" y2="0"/>
</g>
<g transform="translate(14.2264, 7.6243)">
<line stroke-linejoin="round" stroke-linecap="round" stroke-width="0.1000" stroke="currentColor" x1="0.0500" y1="0" x2="34.2695" y2="0"/>
</g>
<g transform="translate(14.2264, 6.6243)">
<line stroke-linejoin="round" stroke-linecap="round" stroke-width="0.1000" stroke="currentColor" x1="0.0500" y1="0" x2="34.2695" y2="0"/>
</g>
<g transform="translate(14.2264, 5.6243)">
<line stroke-linejoin="round" stroke-linecap="round" stroke-width="0.1000" stroke="currentColor" x1="0.0500" y1="0" x2="34.2695" y2="0"/>
</g>
<g transform="translate(35.0783, 7.6243)">
<rect x="0.0000" y="-2.0000" width="0.1900" height="4.0000" ry="0.0000" fill="currentColor"/>
</g>
<g transform="translate(48.3559, 7.6243)">
<rect x="0.0000" y="-2.0000" width="0.1900" height="4.0000" ry="0.0000" fill="currentColor"/>
</g>
<g transform="translate(5.6906, 10.6243)">
<rect x="39.1584" y="-0.1000" width="1.9563" height="0.2000" ry="0.1000" fill="currentColor"/>
</g>
<g transform="translate(5.6906, 10.6243)">
<rect x="36.1562" y="-0.1000" width="1.9563" height="0.2000" ry="0.1000" fill="currentColor"/>
</g>
<g transform="translate(5.6906, 10.6243)">
<rect x="33.1539" y="-0.1000" width="1.9563" height="0.2000" ry="0.1000" fill="currentColor"/>
</g>
<g transform="translate(5.6906, 11.6243)">
<rect x="33.1539" y="-0.1000" width="1.9563" height="0.2000" ry="0.1000" fill="currentColor"/>
</g>
<g transform="translate(5.6906, 10.6243)">
<rect x="30.1517" y="-0.1000" width="1.9563" height="0.2000" ry="0.1000" fill="currentColor"/>
</g>
<g transform="translate(5.6906, 11.6243)">
<rect x="30.1517" y="-0.1000" width="1.9563" height="0.2000" ry="0.1000" fill="currentColor"/>
</g>
<g transform="translate(5.6906, 10.6243)">
<rect x="25.9165" y="-0.1000" width="1.9563" height="0.2000" ry="0.1000" fill="currentColor"/>
</g>
<g transform="translate(5.6906, 11.6243)">
<rect x="25.9165" y="-0.1000" width="1.9563" height="0.2000" ry="0.1000" fill="currentColor"/>
</g>
<g transform="translate(5.6906, 12.6243)">
<rect x="25.9165" y="-0.1000" width="1.9563" height="0.2000" ry="0.1000" fill="currentColor"/>
</g>
<g transform="translate(5.6906, 10.6243)">
<rect x="22.9143" y="-0.1000" width="1.9563" height="0.2000" ry="0.1000" fill="currentColor"/>
</g>
<g transform="translate(5.6906, 11.6243)">
<rect x="22.9143" y="-0.1000" width="1.9563" height="0.2000" ry="0.1000" fill="currentColor"/>
</g>
<g transform="translate(5.6906, 12.6243)">
<rect x="22.9143" y="-0.1000" width="1.9563" height="0.2000" ry="0.1000" fill="currentColor"/>
</g>
<g transform="translate(5.6906, 10.6243)">
<rect x="19.9120" y="-0.1000" width="1.9563" height="0.2000" ry="0.1000" fill="currentColor"/>
</g>
<g transform="translate(5.6906, 11.6243)">
<rect x="19.9120" y="-0.1000" width="1.9563" height="0.2000" ry="0.1000" fill="currentColor"/>
</g>
<g transform="translate(5.6906, 12.6243)">
<rect x="19.9120" y="-0.1000" width="1.9563" height="0.2000" ry="0.1000" fill="currentColor"/>
</g>
<g transform="translate(5.6906, 13.6243)">
<rect x="19.9120" y="-0.1000" width="1.9563" height="0.2000" ry="0.1000" fill="currentColor"/>
</g>
<g transform="translate(5.6906, 10.6243)">
<rect x="16.9098" y="-0.1000" width="1.9563" height="0.2000" ry="0.1000" fill="currentColor"/>
</g>
<g transform="translate(5.6906, 11.6243)">
<rect x="16.9098" y="-0.1000" width="1.9563" height="0.2000" ry="0.1000" fill="currentColor"/>
</g>
<g transform="translate(5.6906, 12.6243)">
<rect x="16.9098" y="-0.1000" width="1.9563" height="0.2000" ry="0.1000" fill="currentColor"/>
</g>
<g transform="translate(5.6906, 13.6243)">
<rect x="16.9098" y="-0.1000" width="1.9563" height="0.2000" ry="0.1000" fill="currentColor"/>
</g>
<g transform="translate(40.4097, 7.6243)">
<rect x="-0.0650" y="-0.0000" width="0.1300" height="3.8139" ry="0.0400" fill="currentColor"/>
</g>
<a style="color:inherit;" xlink:href="textedit:///home/fejori/notes/estructured/music/hey.ly:16:18:19">
<g transform="translate(39.1705, 11.6243)">
<path transform="scale(0.0040, -0.0040)" d="M218 136c66 0 108 -36 108 -89c0 -89 -113 -183 -218 -183c-66 0 -108 36 -108 89c0 89 113 183 218 183z" fill="currentColor"/>
</g>
</a>
<g transform="translate(37.4075, 7.6243)">
<rect x="-0.0650" y="-0.0000" width="0.1300" height="4.3139" ry="0.0400" fill="currentColor"/>
</g>
<g transform="translate(46.4142, 7.6243)">
<rect x="-0.0650" y="-0.5000" width="0.1300" height="3.3139" ry="0.0400" fill="currentColor"/>
</g>
<a style="color:inherit;" xlink:href="textedit:///home/fejori/notes/estructured/music/hey.ly:16:22:23">
<g transform="translate(45.1750, 10.6243)">
<path transform="scale(0.0040, -0.0040)" d="M218 136c66 0 108 -36 108 -89c0 -89 -113 -183 -218 -183c-66 0 -108 36 -108 89c0 89 113 183 218 183z" fill="currentColor"/>
</g>
</a>
<g transform="translate(43.4120, 7.6243)">
<rect x="-0.0650" y="-0.0000" width="0.1300" height="3.3139" ry="0.0400" fill="currentColor"/>
</g>
<a style="color:inherit;" xlink:href="textedit:///home/fejori/notes/estructured/music/hey.ly:16:20:21">
<g transform="translate(42.1728, 11.1243)">
<path transform="scale(0.0040, -0.0040)" d="M218 136c66 0 108 -36 108 -89c0 -89 -113 -183 -218 -183c-66 0 -108 36 -108 89c0 89 113 183 218 183z" fill="currentColor"/>
</g>
</a>
<g transform="translate(27.1678, 7.6243)">
<rect x="-0.0650" y="-0.0000" width="0.1300" height="5.8139" ry="0.0400" fill="currentColor"/>
</g>
<a style="color:inherit;" xlink:href="textedit:///home/fejori/notes/estructured/music/hey.ly:16:10:11">
<g transform="translate(25.9286, 13.6243)">
<path transform="scale(0.0040, -0.0040)" d="M218 136c66 0 108 -36 108 -89c0 -89 -113 -183 -218 -183c-66 0 -108 36 -108 89c0 89 113 183 218 183z" fill="currentColor"/>
</g>
</a>
<a style="color:inherit;" xlink:href="textedit:///home/fejori/notes/estructured/music/hey.ly:16:16:17">
<g transform="translate(36.1683, 12.1243)">
<path transform="scale(0.0040, -0.0040)" d="M218 136c66 0 108 -36 108 -89c0 -89 -113 -183 -218 -183c-66 0 -108 36 -108 89c0 89 113 183 218 183z" fill="currentColor"/>
</g>
</a>
<a style="color:inherit;" xlink:href="textedit:///home/fejori/notes/estructured/music/hey.ly:16:8:9">
<g transform="translate(22.9264, 14.1243)">
<path transform="scale(0.0040, -0.0040)" d="M218 136c66 0 108 -36 108 -89c0 -89 -113 -183 -218 -183c-66 0 -108 36 -108 89c0 89 113 183 218 183z" fill="currentColor"/>
</g>
</a>
<g transform="translate(15.0264, 8.6243)">
<path transform="scale(0.0040, -0.0040)" d="M266 -635h-6c-108 0 -195 88 -195 197c0 58 53 103 112 103c54 0 95 -47 95 -103c0 -52 -43 -95 -95 -95c-11 0 -21 2 -31 6c26 -39 68 -65 117 -65h4zM461 -203c68 24 113 90 113 164c0 90 -66 179 -173 190c19 -89 48 -242 60 -354zM74 28c0 -145 141 -247 264 -247
c1 0 47 0 82 6c-7 64 -29 203 -63 364c-79 -8 -124 -61 -124 -119c0 -44 25 -91 81 -123c5 -5 7 -10 7 -15c0 -11 -10 -22 -22 -22c-15 0 -126 62 -126 187c0 88 58 174 160 197c-14 58 -29 117 -46 175c-107 -121 -213 -243 -213 -403zM250 553c-29 96 -52 170 -52 346
c0 115 55 224 149 292c6 5 14 5 20 0c68 -80 133 -245 133 -358c0 -143 -86 -255 -180 -364c21 -68 39 -138 56 -207c2 0 7 1 13 1c155 0 256 -128 256 -261c0 -113 -74 -212 -180 -246c3 -35 5 -70 5 -105c0 -19 -1 -39 -2 -58c-7 -119 -88 -225 -202 -228l1 43
c93 2 153 92 159 191c1 18 2 37 2 55c0 31 -1 61 -4 92c-5 -1 -44 -8 -89 -8c-193 0 -333 180 -333 374c0 177 131 306 248 441zM428 916c0 34 1 66 -20 129c-99 -48 -162 -149 -162 -259c0 -52 12 -115 36 -194c80 97 146 198 146 324z" fill="currentColor"/>
</g>
<g transform="translate(24.1656, 7.6243)">
<rect x="-0.0650" y="-0.0000" width="0.1300" height="6.3139" ry="0.0400" fill="currentColor"/>
</g>
<g transform="translate(19.2264, 7.6243)">
<path transform="scale(0.0040, -0.0040)" d="M250 262c116 0 176 -106 176 -163c0 -40 -30 -72 -67 -72c-31 0 -75 25 -75 75c0 38 27 77 72 77c4 0 9 0 14 -1c-28 37 -72 59 -120 59c-106 0 -113 -73 -113 -186v-51v-51c0 -113 7 -187 113 -187c80 0 139 70 158 151c2 7 7 10 12 10c6 0 13 -4 13 -12
c0 -22 -50 -174 -183 -174c-59 0 -250 19 -250 263c0 62 18 262 250 262z" fill="currentColor"/>
</g>
<g transform="translate(33.1724, 7.6243)">
<rect x="-0.0650" y="-0.0000" width="0.1300" height="4.8139" ry="0.0400" fill="currentColor"/>
</g>
<a style="color:inherit;" xlink:href="textedit:///home/fejori/notes/estructured/music/hey.ly:16:14:15">
<g transform="translate(31.9331, 12.6243)">
<path transform="scale(0.0040, -0.0040)" d="M218 136c66 0 108 -36 108 -89c0 -89 -113 -183 -218 -183c-66 0 -108 36 -108 89c0 89 113 183 218 183z" fill="currentColor"/>
</g>
</a>
<g transform="translate(30.1701, 7.6243)">
<rect x="-0.0650" y="-0.0000" width="0.1300" height="5.3139" ry="0.0400" fill="currentColor"/>
</g>
<a style="color:inherit;" xlink:href="textedit:///home/fejori/notes/estructured/music/hey.ly:16:12:13">
<g transform="translate(28.9309, 13.1243)">
<path transform="scale(0.0040, -0.0040)" d="M218 136c66 0 108 -36 108 -89c0 -89 -113 -183 -218 -183c-66 0 -108 36 -108 89c0 89 113 183 218 183z" fill="currentColor"/>
</g>
</a>
</svg>
